# xmcd
# 
# Track frame offsets:
#     150
#     11407
#     30225
#     47315
#     59517
#     72370
#     86635
#     102305
#     124662
#     139757
#     153855
#     166242
#     184412
#     203890
#     223477
#     242192
#     258397
# 
# Disc length: 3711
# 
# Revision: 9
# Processed by: cddbd v1.5.2PL0 Copyright (c) Steve Scherf et al.
# Submitted via: fre:ac v1.0.17
# 
DISCID=ee0e7d11
DTITLE=Daniele, Pino - Napule E' [CD2] - Raccolta Completa
DYEAR=2000
DGENRE=Pop Italiano
TTITLE0=Terra mia
TTITLE1='O Scarrafone
TTITLE2=A Testa In Giù
TTITLE3=Amici Come Prima
TTITLE4=Resta... Resta cu'mme
TTITLE5=Ma Che Ho
TTITLE6=Bella 'Mbriana
TTITLE7=Anna Verrà
TTITLE8=Invece No
TTITLE9=A Me Me Piace o' Blues
TTITLE10=Notte Che Se Ne Va
TTITLE11=Voglio Di Più
TTITLE12=Amore Senza Fine
TTITLE13=Quanno Chiove
TTITLE14=Annare'
TTITLE15=Yes I Know My Way
TTITLE16=Je Sto Vicino a Te
EXTD=EastWest - Made in Germany - 2000
EXTT0=
EXTT1=
EXTT2=
EXTT3=
EXTT4=
EXTT5=
EXTT6=
EXTT7=
EXTT8=
EXTT9=
EXTT10=
EXTT11=
EXTT12=
EXTT13=
EXTT14=
EXTT15=
EXTT16=
PLAYORDER=
